<svg id="Layer_1" data-name="Layer 1" xmlns="http://www.w3.org/2000/svg" viewBox="0 0 1000 1000"><defs><style>.cls-1{fill:#586aea;}.cls-2{fill:#fff;}</style></defs><rect class="cls-1" width="1000" height="1000"/><path class="cls-2" d="M108.73,619.3c0-7.59-.27-15.2,0-22.78.56-13.2,1.28-26.4,2.57-39.56,1.26-12.78,2.79-25.51,4.72-38.21a620.89,620.89,0,0,1,12.79-62.3,650.57,650.57,0,0,1,28.7-85.77c7.84-19,16.57-37.6,26-55.85q15.65-30.24,34.07-58.9c2.89-4.51,5.88-9,8.77-13.46a9,9,0,0,1,4.11-3.54,654,654,0,0,1,70-27.1,645.46,645.46,0,0,1,85.89-21.26c3-.54,3.61-.31,5.16,2.43a404.1,404.1,0,0,1,18.11,36.32c.12.27.21.55.33.82,1,2.13,1,2.15,3.3,1.85,3.76-.49,7.52-1,11.29-1.53,12.07-1.6,24.19-2.64,36.33-3.56,18-1.36,36-1.24,54.06-1.09,11.4.09,22.77.88,34.13,1.8,12.82,1,25.58,2.54,38.32,4.32,2.78.39,2.81.38,3.92-2.18,5.34-12.34,11.14-24.45,17.61-36.25,1.86-3.39,2.13-3.48,6-2.79a638.77,638.77,0,0,1,73.88,17.59,700.66,700.66,0,0,1,76.71,28.4,25.54,25.54,0,0,1,11.86,10.08c13.33,20.51,26,41.36,37.55,63a688.09,688.09,0,0,1,29.78,63.43A643.14,643.14,0,0,1,872,454.84a631,631,0,0,1,13.24,64.6c2,13.17,3.61,26.38,4.74,39.66q1.08,12.79,1.78,25.6c.29,5.44.24,10.89.58,16.32.62,10,.48,20.06.24,30.07-.26,10.59-.57,21.18-1.37,31.76-.6,7.85-1.14,15.7-1.83,23.55a4.9,4.9,0,0,1-2.13,3.89,709.61,709.61,0,0,1-60.39,39.54q-18.33,10.65-37.32,20.07A627.87,627.87,0,0,1,716,780.71c-7.28,2.5-14.6,4.89-21.91,7.31-3.29,1.08-3.91.88-5.89-1.93a523.68,523.68,0,0,1-34.7-55.78c-1.14-2.15-2.34-4.27-3.47-6.42-1.51-2.9-1.08-4.23,2-5.42,8.72-3.4,17.35-7,25.85-10.91,11.17-5.13,22-10.85,32.67-17a8.86,8.86,0,0,0,1.23-.79c1.57-1.27,1.74-2.94.19-4.2-3.93-3.2-8-6.27-11.94-9.4-1.31-1-2.55-.5-3.83.07-5.07,2.26-10.12,4.57-15.24,6.72a474.55,474.55,0,0,1-86.35,27,453.24,453.24,0,0,1-53.73,8c-7.37.64-14.76,1-22.15,1.38-10.33.48-20.66.43-31,.22-11.78-.25-23.54-1.11-35.26-2.39a472.76,472.76,0,0,1-61.26-10.77,489.2,489.2,0,0,1-56.91-17.7q-15-5.68-29.67-12.37a4.17,4.17,0,0,0-5,.62c-3.2,2.69-6.57,5.2-9.86,7.78a10.87,10.87,0,0,0-.91.74c-1.62,1.6-1.59,3.09.26,4.37a51.22,51.22,0,0,0,4.54,2.65,432.23,432.23,0,0,0,54.67,25.82c3.64,1.41,4,2.31,2.17,5.9q-10.27,20.18-22.55,39.24-7.39,11.57-15.49,22.67c-2,2.69-2.41,2.9-5.63,1.89q-20.62-6.51-40.85-14.22a641.63,641.63,0,0,1-64-28.72Q175.18,731.33,149.84,715q-17.35-11.13-34-23.24c-.79-.57-1.55-1.19-2.35-1.74a4.14,4.14,0,0,1-1.86-3.43c-.38-5.43-.94-10.85-1.29-16.28-.58-8.92-1.22-17.85-1.51-26.78C108.53,635.47,108.35,627.39,108.73,619.3Z"/><path class="cls-1" d="M701.51,518.92c-.07,17.46-4.4,33.69-14.21,48.26-8.62,12.8-19.94,22.36-34.62,27.5-16.57,5.8-32.95,5.08-48.85-2.5-15.16-7.22-26.15-18.71-33.78-33.53a83.84,83.84,0,0,1-9.25-35c-1-20.82,4.38-39.72,17.08-56.28,10.29-13.43,23.63-22.52,40.44-25.89A62.15,62.15,0,0,1,658,446.14c20.44,9.66,33.11,26,39.88,47.18A80.09,80.09,0,0,1,701.51,518.92Z"/><path class="cls-1" d="M440.91,518.84a83.86,83.86,0,0,1-8.52,38.4c-8.11,16.47-20.07,29.32-37.33,36.22-23.2,9.28-45,5.93-64.71-9.34-15.48-12-24.51-28.18-28.54-47.25a81.42,81.42,0,0,1-1.69-22.06c1.37-21.59,8.9-40.62,24.71-55.77,14.66-14.05,32.26-20.46,52.59-18.44a63.62,63.62,0,0,1,36.33,16c16,14.11,24.58,32.07,26.8,53.19C440.87,512.83,440.86,515.83,440.91,518.84Z"/></svg>